<?xml version="1.0" encoding="utf-8"?>
<!-- Generator: Adobe Illustrator 17.1.0, SVG Export Plug-In . SVG Version: 6.00 Build 0)  -->
<!DOCTYPE svg PUBLIC "-//W3C//DTD SVG 1.1//EN" "http://www.w3.org/Graphics/SVG/1.1/DTD/svg11.dtd">
<svg version="1.1" id="graph-2" xmlns="http://www.w3.org/2000/svg" xmlns:xlink="http://www.w3.org/1999/xlink" x="0px" y="0px"
	 viewBox="0 0 99.997 99.9965" enable-background="new 0 0 99.997 99.9965" xml:space="preserve">
<path id="graph-2-label" fill="#324058" d="M50.0014,99.9965C77.6133,99.9965,99.997,77.6137,99.997,50
	c0-27.6094-22.3837-50-49.9956-50C22.3896,0,0,22.3906,0,50C0,77.6137,22.3896,99.9965,50.0014,99.9965z"/>
<g id="graph-2-graph">
	<g>
		<path fill="#43C7D2" d="M77.1933,78.145H22.8042c-0.5259,0-0.9522-0.4258-0.9522-0.9512V22.8042
			c0-0.5254,0.4263-0.9512,0.9522-0.9512c0.5254,0,0.9521,0.4258,0.9521,0.9512v53.4375h53.437
			c0.5264,0,0.9522,0.4277,0.9522,0.9521C78.1455,77.7192,77.7197,78.145,77.1933,78.145L77.1933,78.145z"/>
	</g>
	<g>
		<path fill="#EB8619" d="M39.4077,72.3188h-9.0933c-0.5258,0-0.9521-0.4267-0.9521-0.9521V29.9775
			c0-0.5259,0.4263-0.9517,0.9521-0.9517h9.0933c0.5259,0,0.9517,0.4258,0.9517,0.9517v41.3892
			C40.3594,71.8921,39.9336,72.3188,39.4077,72.3188L39.4077,72.3188z M31.2666,70.4165h7.1889V30.9287h-7.1889V70.4165
			L31.2666,70.4165z"/>
	</g>
	<g>
		<path fill="#FFFFFF" d="M55.3213,72.3188H46.228c-0.5259,0-0.9521-0.4267-0.9521-0.9521V42.5971
			c0-0.5249,0.4262-0.9511,0.9521-0.9511h9.0933c0.5263,0,0.9521,0.4262,0.9521,0.9511v28.7696
			C56.2734,71.8921,55.8476,72.3188,55.3213,72.3188L55.3213,72.3188z M47.1802,70.4165h7.1889V43.5488h-7.1889V70.4165
			L47.1802,70.4165z"/>
	</g>
	<g>
		<path fill="#43C7D2" d="M71.2363,72.3188h-9.0957c-0.5254,0-0.9521-0.4267-0.9521-0.9521V53.5464
			c0-0.5254,0.4267-0.9512,0.9521-0.9512h9.0957c0.5244,0,0.9502,0.4258,0.9502,0.9512v17.8203
			C72.1865,71.8921,71.7607,72.3188,71.2363,72.3188L71.2363,72.3188z M63.0928,70.4165h7.1914v-15.918h-7.1914V70.4165
			L63.0928,70.4165z"/>
	</g>
</g>
</svg>
